<svg viewBox="0 0 124 124" color="rgb(0 61 255)" fill="none" xmlns="http://www.w3.org/2000/svg" role="img" aria-label="Algolia Logo" width="24" height="24" class="stl-text-accent-600"><title>Algolia Logo</title><path d="M62.499 0C28.892 0 1.493 27.082 1.005 60.556.51 94.55 28.11 122.722 62.13 122.916c10.51.063 20.626-2.506 29.614-7.388a1.437 1.437 0 0 0 .268-2.338l-5.756-5.097a4.06 4.06 0 0 0-4.271-.718c-6.27 2.669-13.091 4.027-20.112 3.943-27.488-.336-49.704-23.197-49.263-50.667.43-27.125 22.646-49.058 49.888-49.058h49.898v88.63L84.09 75.086c-.918-.813-2.32-.656-3.06.325-4.543 6.014-11.946 9.752-20.168 9.186-11.407-.786-20.647-9.962-21.502-21.356-1.023-13.591 9.754-24.975 23.139-24.975 12.104 0 22.074 9.313 23.118 21.142a4.13 4.13 0 0 0 1.359 2.737l7.372 6.533c.834.74 2.161.289 2.371-.813.53-2.841.719-5.799.51-8.835-1.187-17.303-15.212-31.224-32.537-32.289C44.832 25.52 28.23 41.045 27.7 60.504c-.514 18.965 15.038 35.314 34.016 35.734A34.664 34.664 0 0 0 82.92 89.61l36.991 32.766c1.584 1.405 4.087.278 4.087-1.835V2.333A2.332 2.332 0 0 0 121.663 0H62.499Z" fill="currentColor"></path></svg>
